# This file uses centimeters as units for non-parametric coordinates.

mtllib Table.mtl
g default
v -382.491315 -97.226421 97.807988
v 97.807988 -97.226421 97.807988
v -280.163826 -24.847705 0.000082
v -382.491315 -97.226421 -97.807988
v 97.807988 -97.226433 -97.808011
v -490.347727 104.091528 -173.891187
v -490.347727 104.091505 173.891175
v -388.020284 57.333674 0.000000
v 96.060444 104.091505 -173.891175
v 96.060444 104.091505 173.891175
v -388.634536 -105.423752 -97.807988
v 97.807988 -105.423647 -97.807988
v 97.807988 -105.423647 97.807988
v -388.634536 -105.423694 97.807970
v -496.490948 110.068110 173.891175
v -496.490995 110.068087 -173.891187
v 96.060444 110.068110 173.891175
v 96.060444 110.068110 -173.891175
vt 0.768124 0.677794
vt 0.753446 0.314046
vt 0.551042 0.511943
vt 0.824905 0.401854
vt 0.611191 0.597743
vt 0.621069 0.604235
vt 0.829721 0.402415
vt 0.753770 0.309361
vt 0.761308 0.673262
vt 0.209639 0.761350
vt 0.189025 0.917548
vt 0.460485 0.619270
vt 0.482786 0.931903
vt 0.484537 0.755863
vt 0.478954 0.934476
vt 0.482387 0.748299
vt 0.191030 0.915750
vt 0.211477 0.763289
vt 0.461014 0.574570
vt 0.428064 0.438392
vt 0.481491 0.750147
vt 0.730821 0.872868
vt 0.303514 0.584977
vt 0.734695 0.867221
vt 0.187330 0.603265
vt 0.443163 0.356310
vt 0.501186 0.462528
vt 0.506867 0.465127
vt 0.697728 0.205915
vt 0.610163 0.599561
vn 0.000000 0.803838 0.594848
vn 0.000000 0.803838 0.594848
vn 0.000000 0.803838 0.594848
vn -0.000000 0.803839 -0.594847
vn -0.000000 0.803839 -0.594847
vn -0.000000 0.803839 -0.594847
vn 0.000000 -1.000000 0.000000
vn 0.000000 -1.000000 0.000000
vn 0.000000 -1.000000 0.000000
vn 0.000000 -1.000000 0.000000
vn 0.188075 0.982155 -0.000000
vn 0.188075 0.982155 -0.000000
vn 0.188075 0.982155 -0.000000
vn 0.096144 -0.995367 0.000000
vn 0.096144 -0.995367 0.000000
vn 0.096144 -0.995367 0.000000
vn -0.894243 -0.447581 0.000000
vn -0.894243 -0.447581 0.000000
vn -0.894244 -0.447581 0.000000
vn -0.894244 -0.447581 0.000000
vn 0.717145 0.390811 0.577036
vn 0.717145 0.390811 0.577036
vn 0.717145 0.390811 0.577036
vn 0.717145 0.390811 0.577036
vn 0.717145 0.390811 -0.577036
vn 0.717145 0.390811 -0.577036
vn 0.717145 0.390811 -0.577036
vn 0.717145 0.390811 -0.577036
vn -0.000000 1.000000 -0.000000
vn -0.000000 1.000000 -0.000000
vn -0.000000 1.000000 -0.000000
vn -0.000000 1.000000 -0.000000
vn 0.000000 -0.965698 0.259668
vn 0.000000 -0.965698 0.259668
vn 0.000000 -0.965698 0.259668
vn -0.000000 -0.965698 -0.259668
vn -0.000000 -0.965698 -0.259668
vn -0.000000 -0.965698 -0.259668
vn -0.000000 -0.000001 -1.000000
vn -0.000000 -0.000001 -1.000000
vn -0.000000 -0.000001 -1.000000
vn -0.000000 -0.000001 -1.000000
vn 1.000000 0.000000 0.000000
vn 1.000000 0.000000 0.000000
vn 1.000000 0.000000 0.000000
vn 1.000000 0.000000 0.000000
vn -0.000000 -0.000001 1.000000
vn -0.000000 -0.000001 1.000000
vn -0.000000 -0.000001 1.000000
vn -0.000000 -0.000001 1.000000
vn 0.057140 -0.316149 0.946987
vn 0.057140 -0.316149 0.946987
vn 0.057140 -0.316149 0.946987
vn 0.057140 -0.316149 0.946987
vn 0.057146 -0.316148 -0.946987
vn 0.057146 -0.316148 -0.946987
vn 0.057146 -0.316148 -0.946987
vn 0.057146 -0.316148 -0.946987
vn 0.000000 0.000000 1.000000
vn 0.000000 0.000000 1.000000
vn 0.000000 0.000000 1.000000
vn 0.000000 0.000000 1.000000
vn 1.000000 0.000000 0.000000
vn 1.000000 0.000000 0.000000
vn 1.000000 0.000000 0.000000
vn 1.000000 0.000000 0.000000
vn 0.000000 0.000000 -1.000000
vn 0.000000 0.000000 -1.000000
vn 0.000000 0.000000 -1.000000
vn 0.000000 0.000000 -1.000000
s off
g pCube6
usemtl initialParticleSE
f 1/28/1 2/2/2 3/3/3
f 3/3/4 5/4/5 4/5/6
f 11/26/7 12/29/8 13/8/9 14/27/10
f 2/2/11 5/4/12 3/3/13
f 9/10/14 10/25/15 8/12/16
f 11/6/17 14/9/18 15/22/19 16/21/20
f 1/20/21 3/3/22 8/12/23 7/23/24
f 3/3/25 4/5/26 6/16/27 8/12/28
f 16/14/29 15/13/30 17/17/31 18/18/32
f 7/19/33 8/12/34 10/25/35
f 8/12/36 6/16/37 9/10/38
f 4/5/39 5/4/40 12/7/41 11/30/42
f 5/4/43 2/2/44 13/8/45 12/7/46
f 2/2/47 1/28/48 14/27/49 13/8/50
f 1/1/51 7/24/52 15/22/53 14/9/54
f 6/16/55 4/5/56 11/6/57 16/21/58
f 7/15/59 10/11/60 17/17/61 15/13/62
f 10/11/63 9/10/64 18/18/65 17/17/66
f 9/10/67 6/16/68 16/14/69 18/18/70
